<?xml version="1.0" standalone="no"?>
<!DOCTYPE svg PUBLIC "-//W3C//DTD SVG 20010904//EN"
 "http://www.w3.org/TR/2001/REC-SVG-20010904/DTD/svg10.dtd">
<svg version="1.0" xmlns="http://www.w3.org/2000/svg"
 width="500.000000pt" height="500.000000pt" viewBox="0 0 500.000000 500.000000"
 preserveAspectRatio="xMidYMid meet">

<g transform="translate(0.000000,500.000000) scale(0.100000,-0.100000)"
fill="#000000" stroke="none">
<path d="M2231 4704 c-445 -54 -856 -239 -1196 -537 -341 -299 -590 -707 -690
-1132 -35 -150 -75 -445 -60 -445 3 0 16 9 28 21 101 95 252 177 395 216 85
22 109 25 197 20 136 -9 257 -41 460 -124 158 -65 235 -85 235 -62 0 5 6 9 14
9 13 0 76 139 76 167 0 36 25 12 81 -79 71 -115 130 -198 141 -198 7 0 -57
144 -75 168 -6 8 -6 12 1 12 6 0 16 -8 21 -17 6 -10 11 -13 11 -7 0 13 -40 51
-40 38 -1 -5 -10 9 -22 31 -19 35 -22 38 -29 20 -5 -13 -8 2 -8 42 -1 63 -20
153 -32 153 -4 0 -12 -7 -19 -15 -25 -30 -37 -15 -52 63 -9 42 -13 82 -9 88
17 32 145 164 152 157 4 -4 14 -69 23 -143 33 -290 55 -432 78 -528 9 -34 13
-40 20 -28 13 23 44 20 62 -6 14 -20 18 -21 57 -8 40 14 54 29 47 50 -2 7 -14
3 -31 -10 l-28 -22 -23 21 c-12 11 -27 21 -34 21 -6 0 -14 5 -18 11 -4 8 0 9
15 4 25 -8 32 7 51 110 7 39 25 97 40 130 15 33 30 67 34 75 3 8 4 -34 1 -95
l-5 -110 120 -60 c66 -33 120 -62 120 -65 0 -10 -103 -106 -153 -143 -38 -29
-44 -38 -31 -45 19 -11 16 -98 -3 -94 -16 3 -17 -15 -2 -20 6 -2 9 -15 7 -28
-4 -25 -4 -25 -18 5 -8 17 -27 47 -42 67 -27 34 -31 36 -58 26 -29 -10 -29
-10 -15 -39 18 -34 16 -35 -27 -9 -18 11 -44 20 -58 20 l-25 -1 30 -25 c17
-14 61 -48 98 -76 46 -35 64 -54 55 -59 -16 -10 -30 -1 -22 13 5 8 1 9 -10 5
-9 -4 -15 -3 -12 2 22 35 -92 37 -159 4 -22 -11 -59 -23 -81 -27 -46 -7 -44
-10 -79 102 -12 38 -22 52 -35 52 -18 0 -91 18 -155 38 -36 12 -123 46 -179
71 -23 10 -61 28 -86 39 -76 34 -203 83 -255 99 -75 23 -225 19 -302 -6 -60
-21 -167 -77 -208 -110 l-20 -16 20 24 c25 29 124 98 171 117 33 14 34 15 19
37 -8 13 -12 27 -8 30 3 4 -3 7 -15 7 -12 0 -22 5 -22 11 0 17 -112 5 -190
-20 -42 -14 -87 -39 -127 -71 l-63 -50 0 -93 c0 -126 25 -337 56 -475 179
-798 826 -1457 1625 -1652 196 -48 323 -62 539 -63 271 0 456 29 696 108 451
148 848 446 1136 855 182 258 314 595 364 930 25 163 25 486 1 640 -66 418
-216 757 -482 1087 -247 308 -610 562 -987 691 -310 107 -670 145 -997 106z
m-104 -40 c-3 -3 -12 -4 -19 -1 -8 3 -5 6 6 6 11 1 17 -2 13 -5z m482 -111 c2
-2 2 -5 -1 -8 -2 -3 -18 10 -34 28 l-29 32 30 -25 c17 -14 32 -26 34 -27z
m-174 17 c13 -5 14 -9 5 -9 -8 0 -24 4 -35 9 -13 5 -14 9 -5 9 8 0 24 -4 35
-9z m50 -20 c3 -6 -1 -7 -9 -4 -18 7 -21 14 -7 14 6 0 13 -4 16 -10z m49 -25
c11 -8 15 -15 10 -15 -6 0 -19 7 -30 15 -10 8 -14 14 -9 14 6 0 19 -6 29 -14z
m-861 -42 c-7 -2 -19 -2 -25 0 -7 3 -2 5 12 5 14 0 19 -2 13 -5z m127 -13 c13
-9 13 -10 0 -9 -8 0 -24 4 -35 9 l-20 9 20 0 c11 0 27 -4 35 -9z m55 -20 c8
-13 -5 -13 -25 0 -13 8 -13 10 2 10 9 0 20 -4 23 -10z m40 -20 c3 -6 -1 -7 -9
-4 -18 7 -21 14 -7 14 6 0 13 -4 16 -10z m65 -51 c0 -14 -5 -11 -31 17 l-24
27 28 -18 c15 -9 27 -21 27 -26z m-165 21 c13 -6 -3 -7 -45 -3 -36 3 -67 7
-69 9 -9 8 95 2 114 -6z m814 -94 c14 -7 55 -19 91 -26 36 -7 103 -21 150 -32
47 -11 117 -23 155 -28 l70 -7 -60 -2 c-33 0 -96 6 -140 15 -44 8 -103 19
-131 24 -28 5 -70 14 -93 20 -43 11 -113 66 -133 104 -6 12 6 4 27 -17 21 -21
50 -44 64 -51z m597 -85 c8 -48 59 -94 227 -205 142 -94 192 -134 105 -83 -24
13 -70 40 -103 59 -189 108 -236 159 -241 255 -3 55 -1 51 12 -26z m-953 32
c-7 -2 -19 -2 -25 0 -7 3 -2 5 12 5 14 0 19 -2 13 -5z m-48 -8 c-26 -10 -163
-35 -190 -34 -43 1 -16 9 78 24 82 13 131 17 112 10z m-615 -229 c0 -2 -35
-26 -77 -54 -81 -53 -162 -86 -191 -79 -12 3 -10 5 6 6 26 1 107 40 197 94 63
38 65 39 65 33z m2701 -233 c13 -16 12 -17 -3 -4 -17 13 -22 21 -14 21 2 0 10
-8 17 -17z m-3116 -110 c-42 -66 -191 -256 -221 -283 -38 -33 -91 -50 -149
-49 -39 1 -38 2 11 9 29 4 66 16 82 26 35 20 76 70 68 83 -6 9 24 41 35 38 9
-3 146 149 166 184 9 16 19 26 21 24 3 -2 -3 -17 -13 -32z m2720 -75 c33 -45
73 -100 88 -122 27 -39 28 -39 2 -11 -23 27 -118 148 -153 197 -7 10 -10 18
-5 17 4 0 35 -37 68 -81z m-1401 5 c4 -9 1 -20 -6 -24 -16 -10 -43 15 -34 30
11 16 33 13 40 -6z m232 -28 c20 -30 13 -51 -20 -67 -51 -23 -102 45 -58 78
27 21 60 17 78 -11z m1671 -17 c-3 -8 -6 -5 -6 6 -1 11 2 17 5 13 3 -3 4 -12
1 -19z m-1962 -6 c0 -18 -20 -15 -23 4 -3 10 1 15 10 12 7 -3 13 -10 13 -16z
m-79 -40 c6 -4 16 -17 23 -30 10 -19 9 -27 -9 -52 -18 -25 -25 -28 -53 -23
-35 7 -44 16 -53 51 -12 43 53 81 92 54z m2051 -137 c-5 -33 -13 -67 -19 -75
-7 -11 -8 -8 -3 10 4 14 10 66 13 115 5 70 7 81 12 50 3 -22 1 -67 -3 -100z
m-1606 93 c1 -7 1 -16 0 -20 -2 -12 17 -9 98 12 41 11 79 20 85 20 6 0 48 -32
94 -71 87 -75 91 -88 27 -89 -16 0 -37 -4 -45 -10 -12 -7 -12 -12 4 -29 21
-23 93 -30 113 -10 5 5 22 7 37 3 24 -6 27 -11 24 -43 -3 -32 -6 -36 -35 -39
-53 -5 -59 -25 -14 -55 37 -25 40 -30 65 -138 14 -62 24 -114 22 -117 -3 -2
-17 5 -33 15 -63 44 -571 302 -628 319 -22 7 0 10 91 12 l122 3 4 29 c4 27 2
30 -21 30 -39 0 -197 -26 -271 -43 -266 -64 -304 -71 -296 -59 14 22 238 237
249 239 7 1 69 5 140 8 95 5 127 10 127 20 0 22 39 33 41 13z m1536 -85 c-2
-16 -4 -5 -4 22 0 28 2 40 4 28 2 -13 2 -35 0 -50z m-2317 42 c0 -9 -7 -18
-16 -22 -18 -7 -39 11 -30 26 11 17 46 13 46 -4z m201 -7 c-5 -13 -44 -95 -86
-183 -70 -147 -182 -393 -199 -439 -14 -38 -24 0 -28 101 -2 56 1 96 5 90 5
-7 6 -4 2 8 -4 11 -9 31 -10 43 -5 34 -13 38 -23 12 l-9 -24 -7 28 c-4 18 -2
36 8 50 8 13 17 51 20 87 3 35 5 65 6 67 0 1 8 2 19 2 11 0 33 21 55 53 35 50
41 54 139 89 56 20 105 37 109 37 4 1 4 -9 -1 -21z m-274 -68 c30 -46 -26 -94
-73 -63 -27 17 -28 21 -14 57 7 21 16 26 42 26 22 0 37 -7 45 -20z m329 -87
c-60 -59 -104 -109 -98 -111 7 -2 12 -8 12 -14 0 -6 -7 -8 -15 -4 -9 3 -24 -3
-35 -14 -11 -11 -20 -18 -20 -15 0 6 81 184 100 220 14 25 24 31 66 36 107 13
108 17 -10 -98z m1928 30 c-28 -54 -32 -133 -9 -157 8 -8 15 -21 15 -29 0 -9
6 -18 13 -20 9 -4 9 -8 -2 -15 -7 -5 -11 -14 -8 -19 3 -5 8 -29 11 -54 11 -85
36 -203 51 -232 13 -25 13 -28 0 -17 -27 23 -115 358 -115 439 0 45 21 104 47
133 23 26 23 23 -3 -29z m-1630 -82 c10 -16 -6 -42 -23 -39 -9 2 -17 13 -19
26 -3 16 2 22 17 22 11 0 22 -4 25 -9z m-167 -27 c11 -3 23 -15 26 -25 5 -19
7 -19 43 -4 20 8 38 14 40 12 7 -7 -121 -147 -135 -146 -9 0 -42 6 -74 13
l-58 12 60 28 c54 25 59 30 49 46 -9 14 -9 25 0 44 12 28 15 29 49 20z m-117
-85 c0 -37 -44 -49 -73 -21 -28 28 -17 69 21 74 32 4 52 -15 52 -53z m1008 44
c-2 -10 -10 -18 -18 -18 -8 0 -16 8 -18 18 -2 12 3 17 18 17 15 0 20 -5 18
-17z m-588 -9 c0 -9 -7 -14 -17 -12 -25 5 -28 28 -4 28 12 0 21 -6 21 -16z
m78 -43 c2 -13 -1 -28 -7 -34 -7 -7 22 -35 91 -90 55 -45 96 -83 91 -84 -11
-4 -173 23 -176 28 -1 2 -13 36 -26 76 -13 40 -28 74 -34 76 -6 2 -7 15 -3 31
6 22 11 27 34 24 20 -2 28 -9 30 -27z m-1988 -78 c-26 -92 -34 -103 -69 -102
-25 1 -25 2 4 8 27 6 31 12 54 100 14 52 27 89 29 83 2 -6 -6 -46 -18 -89z
m2624 74 c21 -15 12 -47 -14 -47 -20 0 -32 23 -24 45 7 18 15 19 38 2z m-445
-73 c36 -20 89 -49 116 -64 28 -14 87 -47 132 -73 104 -59 108 -60 104 -20 -2
27 2 34 29 48 31 16 33 16 57 -6 28 -27 25 -63 -7 -90 -11 -9 -16 -20 -12 -24
4 -3 0 -12 -9 -19 -10 -7 -27 -57 -43 -131 -15 -66 -29 -121 -31 -123 -2 -2
-16 13 -32 33 -89 116 -114 143 -130 141 -14 -1 -18 7 -19 29 0 22 -26 64 -94
155 -51 69 -105 137 -118 153 -34 36 -23 34 57 -9z m935 -216 c91 -89 166
-169 166 -177 0 -17 -319 -331 -336 -331 -8 0 -15 33 -19 90 l-7 90 -149 0
c-82 0 -149 4 -149 9 0 5 -9 11 -20 14 -11 3 -20 10 -20 16 0 18 29 25 45 11
12 -10 24 -3 70 46 l55 59 -65 65 c-36 36 -65 71 -65 78 0 8 21 12 70 12 63 0
70 2 70 20 0 14 7 20 21 20 16 0 20 -5 16 -20 -5 -18 0 -20 59 -20 l64 0 0 83
c0 80 4 97 21 97 4 0 82 -73 173 -162z m-861 35 c3 -5 8 -22 11 -39 9 -39 -13
-64 -54 -64 -49 0 -70 55 -37 98 10 13 73 17 80 5z m-1060 -27 c8 -20 -20 -43
-35 -28 -14 14 -3 42 16 42 7 0 16 -6 19 -14z m744 -77 l22 -41 -25 -39 c-22
-35 -29 -39 -64 -39 -35 0 -43 5 -60 33 -25 41 -25 62 1 98 17 24 27 29 62 29
39 0 44 -3 64 -41z m-1158 3 c13 -24 -4 -52 -33 -52 -26 0 -40 23 -31 51 8 24
51 25 64 1z m1640 -280 c5 14 13 42 16 62 9 45 21 46 42 2 15 -33 15 -37 -11
-101 -14 -36 -24 -71 -20 -76 3 -6 19 -7 35 -4 27 6 29 4 29 -23 0 -16 5 -54
11 -84 7 -32 8 -62 3 -71 -13 -21 -138 -157 -145 -157 -3 0 -9 26 -12 58 -17
154 -62 431 -91 567 -9 39 -15 77 -15 85 0 8 34 -52 74 -135 69 -140 74 -148
84 -123z m-670 224 c18 -29 20 -38 10 -60 -13 -28 -30 -26 -22 3 15 57 -71 89
-96 35 -6 -14 -9 -30 -6 -35 3 -5 -1 -6 -9 -3 -21 8 -20 22 4 62 17 27 25 32
59 32 34 0 42 -5 60 -34z m421 -3 c-4 -16 -11 -55 -14 -88 -3 -33 -18 -98 -33
-145 -25 -77 -28 -82 -34 -55 -4 17 -7 66 -8 111 l-1 80 46 62 c25 34 48 62
49 62 2 0 0 -12 -5 -27z m58 -127 c-3 -23 -34 -34 -50 -18 -6 6 -6 17 1 30 15
27 53 18 49 -12z m-255 -15 c-4 -3 -11 -10 -15 -15 -5 -5 -8 0 -8 12 0 15 4
20 16 15 9 -3 12 -9 7 -12z m300 -91 c4 -65 3 -97 -3 -85 -7 15 -9 16 -9 4 -1
-9 -9 -23 -18 -30 -15 -13 -16 -12 -11 9 8 30 0 28 -12 -3 -5 -14 -16 -25 -23
-25 -8 0 -20 -11 -27 -25 -32 -60 -17 -7 36 124 31 78 58 141 59 139 1 -2 5
-50 8 -108z m-512 73 c-12 -20 -14 -14 -5 12 4 9 9 14 11 11 3 -2 0 -13 -6
-23z m59 17 c0 -5 -2 -10 -4 -10 -3 0 -8 5 -11 10 -3 6 -1 10 4 10 6 0 11 -4
11 -10z m60 -16 c0 -18 -5 -25 -17 -22 -19 3 -31 28 -13 28 6 0 8 -4 5 -10 -3
-5 -1 -10 4 -10 15 0 14 27 -1 33 -8 3 -6 6 5 6 12 1 17 -7 17 -25z m60 22 c0
-2 -9 -6 -20 -9 -11 -3 -20 -1 -20 4 0 5 9 9 20 9 11 0 20 -2 20 -4z m-153
-28 c-3 -8 -6 -5 -6 6 -1 11 2 17 5 13 3 -3 4 -12 1 -19z m1935 -145 c-11 -15
-32 -39 -47 -53 -18 -16 -13 -5 16 32 43 57 69 74 31 21z m-164 2 c-54 -37
-84 -97 -119 -236 -29 -116 -50 -178 -34 -99 35 175 62 258 97 300 18 21 71
59 83 60 5 0 -7 -11 -27 -25z m-3875 -50 c-9 -19 -18 -33 -21 -31 -4 5 26 66
33 66 3 0 -3 -16 -12 -35z m1225 13 c-2 -15 -11 -24 -25 -26 -19 -3 -23 1 -23
22 0 21 5 26 26 26 21 0 25 -4 22 -22z m2882 9 c0 -2 -19 -21 -42 -42 l-43
-40 40 43 c36 39 45 47 45 39z m-3024 -33 c4 -17 2 -29 -7 -35 -21 -13 -27
-11 -39 12 -9 15 -8 24 1 35 18 22 38 17 45 -12z m1175 -24 c11 0 19 -5 19
-10 0 -7 -13 -8 -35 -4 -22 4 -41 2 -50 -6 -8 -7 -15 -8 -15 -3 0 5 -9 9 -20
9 -19 0 -25 -9 -21 -29 1 -5 -3 -6 -8 -3 -10 7 -23 -19 -14 -28 12 -12 34 -6
27 7 -4 6 -4 9 1 5 4 -4 27 4 51 17 24 14 44 21 44 17 0 -5 -21 -18 -47 -31
-31 -15 -43 -25 -34 -30 9 -6 8 -10 -5 -15 -16 -6 -16 -8 -4 -16 11 -7 12 -10
2 -10 -7 0 -10 -4 -7 -10 3 -5 2 -10 -3 -10 -19 0 -23 34 -6 47 28 21 7 15
-47 -12 l-50 -26 57 77 58 76 44 -6 c25 -3 53 -6 63 -6z m1759 -29 c0 -5 -7
-12 -16 -15 -14 -5 -15 -4 -4 9 14 17 20 19 20 6z m-2230 -36 c0 -9 -6 -12
-15 -9 -8 4 -15 10 -15 15 0 5 7 9 15 9 8 0 15 -7 15 -15z m857 -7 c-3 -8 -6
-5 -6 6 -1 11 2 17 5 13 3 -3 4 -12 1 -19z m-967 -18 c18 -16 36 -30 40 -30 4
0 19 -9 34 -21 21 -17 24 -24 15 -35 -6 -8 -15 -11 -20 -8 -5 3 -9 -2 -9 -10
0 -13 -16 -16 -95 -16 -93 0 -95 1 -101 25 -5 20 2 34 32 68 61 68 60 68 104
27z m166 -8 c0 -10 -11 -23 -23 -29 -21 -10 -23 -9 -23 18 0 24 4 29 23 29 15
0 23 -6 23 -18z m444 -48 c0 -4 -6 -12 -13 -18 -10 -8 -165 -201 -214 -265 -1
-2 -13 4 -25 15 -16 13 -19 14 -10 2 14 -18 10 -22 -31 -32 -19 -4 -26 -3 -22
4 3 5 15 10 26 10 11 0 18 4 15 9 -3 5 -31 0 -62 -10 -32 -11 -59 -17 -62 -15
-9 9 10 26 29 26 11 0 18 4 14 9 -3 5 4 12 15 16 11 3 20 10 20 15 0 5 -7 6
-17 3 -10 -4 -14 -2 -10 4 6 10 96 42 134 47 10 2 21 -4 25 -13 5 -12 7 -10 7
7 1 16 10 26 30 33 16 6 32 16 34 24 4 10 -1 9 -24 -2 -17 -8 -33 -12 -36 -9
-3 3 5 10 18 16 22 10 21 10 -8 6 -26 -4 -31 -2 -26 10 3 8 12 13 20 10 8 -3
11 -1 8 4 -3 6 -15 10 -26 10 -13 0 -18 -4 -13 -12 5 -7 3 -8 -5 -3 -21 12 2
27 102 66 101 40 107 42 107 33z m-1964 -152 c29 -121 28 -186 -5 -248 -11
-22 -20 -35 -21 -31 0 4 7 22 16 38 21 41 19 136 -5 234 -10 44 -22 98 -25
120 -9 64 10 10 40 -113z m2288 123 c-4 -17 -1 -32 10 -44 20 -22 8 -34 -30
-29 -22 3 -31 -5 -58 -51 -31 -54 -32 -54 -130 -88 -54 -18 -100 -32 -102 -30
-2 2 9 33 25 68 l29 65 115 56 c63 31 118 61 122 67 12 21 25 11 19 -14z
m-1090 -91 c3 -9 3 -21 -1 -26 -3 -7 -1 -8 6 -4 15 10 82 -59 75 -78 -3 -8 0
-17 7 -22 8 -5 10 -3 4 7 -7 11 -5 11 10 -1 17 -14 15 -15 -31 -22 -118 -15
-122 -14 -202 72 -55 59 -68 78 -53 77 11 0 17 -5 15 -9 -4 -6 83 -98 93 -98
2 0 3 24 3 54 0 34 5 56 13 59 26 11 55 6 61 -9z m401 -24 c3 -5 1 -10 -5 -10
-6 0 -8 -5 -5 -11 4 -6 -2 -5 -14 2 -14 10 -17 15 -8 21 16 10 25 10 32 -2z
m680 -10 c-9 -14 4 -52 16 -45 13 9 11 -4 -4 -19 -7 -7 -17 -11 -23 -9 -7 2
-14 -4 -18 -13 -5 -12 -2 -15 11 -10 14 6 15 4 6 -5 -13 -13 -36 -3 -27 13 4
6 -1 17 -10 24 -11 8 -13 14 -7 19 6 3 11 15 11 25 0 18 12 28 38 29 7 1 10
-4 7 -9z m18 -15 c-3 -9 -8 -14 -10 -11 -3 3 -2 9 2 15 9 16 15 13 8 -4z
m-823 -15 c0 -5 -5 -10 -11 -10 -5 0 -7 5 -4 10 3 6 8 10 11 10 2 0 4 -4 4
-10z m82 -101 c-12 -22 -22 -42 -22 -43 0 -5 59 2 69 9 6 3 11 1 11 -5 0 -12
50 -5 60 8 10 13 50 32 50 24 0 -8 -134 -92 -146 -92 -12 0 -194 105 -194 112
0 4 12 1 26 -7 24 -12 32 -11 88 19 33 18 65 29 70 24 6 -5 1 -24 -12 -49z
m369 30 c8 -16 8 -23 0 -29 -7 -3 -9 -13 -6 -21 2 -8 1 -21 -5 -29 -8 -12 -13
-12 -44 3 -28 13 -36 23 -36 43 0 50 69 74 91 33z m1454 -209 c-84 -15 -124
-45 -202 -150 -45 -60 -123 -148 -102 -113 31 48 114 160 143 192 39 42 120
81 166 80 l35 -2 -40 -7z m-3025 -317 c17 -24 29 -43 26 -43 -3 0 -33 37 -66
83 -34 45 -45 64 -26 42 20 -22 50 -59 66 -82z m718 60 c3 -10 -15 -13 -65
-13 -42 0 -74 -5 -82 -12 -11 -11 -12 -9 -3 8 8 15 22 21 59 23 26 1 50 4 52
7 9 8 34 -1 39 -13z m80 -26 l-3 -32 60 0 60 0 3 38 c3 36 14 47 28 26 9 -15
-6 -159 -17 -159 -5 0 -9 16 -9 35 l0 35 -60 0 -60 0 0 -37 c0 -25 -3 -33 -9
-24 -7 11 -9 11 -14 0 -3 -8 -6 22 -6 67 -1 44 2 84 5 87 14 13 25 -6 22 -36z
m356 21 c21 -30 20 -54 -4 -78 -21 -21 -21 -21 -1 -49 30 -42 -2 -37 -35 6
-21 28 -32 34 -57 31 -26 -2 -33 -8 -35 -28 -2 -14 -8 -29 -13 -34 -5 -6 -9
26 -9 82 l0 92 69 0 c61 0 72 -3 85 -22z m216 7 c0 -10 -11 -15 -35 -15 l-35
0 0 -75 c0 -60 -3 -75 -15 -75 -12 0 -15 15 -15 75 l0 75 -35 0 c-24 0 -35 5
-35 15 0 12 16 15 85 15 69 0 85 -3 85 -15z m70 -60 l0 -74 68 -3 c82 -4 85
-22 5 -26 -102 -6 -103 -5 -103 93 0 69 3 85 15 85 12 0 15 -15 15 -75z m200
-15 c0 -73 -3 -90 -15 -90 -12 0 -15 17 -15 90 0 73 3 90 15 90 12 0 15 -17
15 -90z m151 23 l54 -68 3 68 c2 51 6 67 17 67 12 0 15 -18 15 -90 0 -82 -2
-90 -19 -90 -11 0 -41 27 -72 64 -30 36 -57 65 -61 65 -5 1 -8 -28 -8 -64 0
-51 -3 -65 -15 -65 -12 0 -15 17 -15 90 0 87 1 90 23 90 17 0 39 -19 78 -67z
m169 32 c0 -47 23 -46 71 1 20 20 44 34 53 32 13 -2 7 -13 -24 -45 l-41 -42
48 -45 c45 -43 47 -46 22 -46 -16 0 -38 13 -59 35 -19 19 -42 35 -52 35 -14 0
-18 -8 -18 -35 0 -24 -5 -35 -15 -35 -12 0 -15 17 -15 90 0 73 3 90 15 90 10
0 15 -11 15 -35z m-1380 -35 c0 -5 -2 -10 -4 -10 -3 0 -8 5 -11 10 -3 6 -1 10
4 10 6 0 11 -4 11 -10z m128 -22 c15 -15 16 -64 1 -73 -16 -11 -24 4 -12 23
18 29 -5 48 -54 44 -26 -2 -43 1 -43 7 0 15 93 14 108 -1z m-121 -74 c-3 -3
-12 -4 -19 -1 -8 3 -5 6 6 6 11 1 17 -2 13 -5z m453 -109 c0 -24 -9 -30 -38
-26 -7 1 -15 -5 -18 -14 -11 -28 -24 -15 -24 25 l0 40 40 0 c36 0 40 -2 40
-25z m117 9 c3 -8 1 -20 -5 -26 -6 -6 -8 -18 -5 -27 5 -13 2 -12 -16 4 -22 19
-23 19 -37 0 -13 -17 -14 -15 -14 23 0 41 1 42 35 42 23 0 38 -6 42 -16z m121
-21 c-3 -36 -5 -38 -40 -41 -29 -3 -38 1 -43 17 -13 41 3 61 46 61 l40 0 -3
-37z m112 -3 c0 -39 -1 -40 -35 -40 -19 0 -35 4 -35 8 0 4 12 8 28 7 23 0 27
4 30 33 5 45 12 40 12 -8z m93 33 c-40 -5 -44 -23 -5 -24 27 -1 27 -1 3 -8
-35 -9 -37 -29 -4 -34 23 -3 22 -4 -9 -6 -38 -1 -38 -1 -38 39 l0 40 43 -2
c36 -1 38 -2 10 -5z m110 0 c-29 -4 -33 -8 -33 -33 0 -25 4 -29 33 -33 26 -4
24 -4 -8 -3 -34 1 -41 5 -43 24 -6 41 4 52 45 50 37 -1 37 -1 6 -5z m125 0
c-13 -3 -18 -15 -18 -39 0 -19 -4 -34 -10 -34 -5 0 -10 15 -10 34 0 24 -5 36
-17 39 -10 3 2 5 27 5 25 0 37 -2 28 -5z m-1831 -65 c-3 -7 -5 -2 -5 12 0 14
2 19 5 13 2 -7 2 -19 0 -25z m73 -42 c0 -40 -8 -29 -15 20 -4 28 -3 35 4 24 6
-8 11 -28 11 -44z m2480 30 c-25 -13 -76 -42 -114 -65 -37 -23 -70 -41 -72
-39 -4 5 115 85 162 108 22 10 46 19 54 19 8 0 -5 -10 -30 -23z m-2120 -36
c14 -11 28 -20 32 -20 16 0 195 -114 227 -143 41 -39 71 -101 70 -147 0 -34
-1 -34 -13 12 -12 45 -54 118 -68 118 -4 0 -13 6 -21 14 -7 8 -38 30 -68 49
-97 62 -203 137 -193 137 5 0 20 -9 34 -20z m-340 -70 c0 -13 -1 -13 -10 0 -5
8 -10 22 -10 30 0 13 1 13 10 0 5 -8 10 -22 10 -30z m-83 -2 c-3 -8 -6 -5 -6
6 -1 11 2 17 5 13 3 -3 4 -12 1 -19z m103 -39 c0 -6 -4 -7 -10 -4 -5 3 -10 11
-10 16 0 6 5 7 10 4 6 -3 10 -11 10 -16z m1020 -185 c41 -8 100 -19 130 -25
66 -13 142 -64 165 -111 l16 -33 -26 33 c-38 46 -99 78 -185 96 -186 40 -285
66 -230 60 30 -3 89 -12 130 -20z m800 17 c-14 -5 -53 -11 -85 -14 l-60 -6 45
13 c25 7 63 14 85 14 34 0 36 -1 15 -7z m80 -176 c11 -13 10 -14 -4 -9 -9 3
-16 10 -16 15 0 13 6 11 20 -6z m173 -2 c-7 -2 -21 -2 -30 0 -10 3 -4 5 12 5
17 0 24 -2 18 -5z m-68 -61 c-3 -3 -11 0 -18 7 -9 10 -8 11 6 5 10 -3 15 -9
12 -12z m-675 -72 c8 -5 11 -10 5 -10 -5 0 -21 10 -35 21 -24 20 -5 13 30 -11z
m-49 -57 c13 -16 12 -17 -3 -4 -10 7 -18 15 -18 17 0 8 8 3 21 -13z m462 -80
c-7 -2 -21 -2 -30 0 -10 3 -4 5 12 5 17 0 24 -2 18 -5z m-56 -9 c-3 -3 -12 -4
-19 -1 -8 3 -5 6 6 6 11 1 17 -2 13 -5z"/>
<path d="M2930 3300 c-32 -5 -33 -6 -11 -12 18 -5 22 -12 18 -27 -5 -19 -1
-21 41 -21 l45 0 -24 28 c-13 15 -26 30 -29 33 -3 3 -21 3 -40 -1z"/>
<path d="M1923 2938 c2 -45 27 -52 45 -13 15 33 15 38 0 28 -20 -12 -32 -10
-40 7 -3 8 -5 -2 -5 -22z"/>
<path d="M2636 2718 c-21 -29 -20 -41 2 -61 26 -24 49 -21 68 8 15 23 15 27 0
50 -20 31 -50 32 -70 3z"/>
<path d="M3153 2358 c3 -24 11 -44 16 -46 6 -2 11 -11 11 -19 0 -9 3 -14 6
-10 4 3 1 21 -5 39 -8 22 -8 34 -1 36 16 6 12 29 -6 36 -26 10 -27 8 -21 -36z"/>
<path d="M2575 2199 c-10 -15 3 -25 16 -12 7 7 7 13 1 17 -6 3 -14 1 -17 -5z"/>
<path d="M2164 2148 c-4 -7 -4 -10 1 -6 4 4 16 3 26 -3 11 -5 19 -7 19 -5 0 3
-9 10 -19 16 -15 7 -22 7 -27 -2z"/>
<path d="M1940 1900 c0 -5 5 -10 11 -10 5 0 7 5 4 10 -3 6 -8 10 -11 10 -2 0
-4 -4 -4 -10z"/>
<path d="M3070 1930 c0 -5 5 -10 11 -10 5 0 7 5 4 10 -3 6 -8 10 -11 10 -2 0
-4 -4 -4 -10z"/>
<path d="M2684 1877 c3 -10 6 -20 6 -22 0 -2 9 -1 19 2 12 3 17 11 14 20 -5
12 -7 12 -14 1 -7 -11 -11 -10 -20 2 -9 13 -10 12 -5 -3z"/>
<path d="M2189 1398 c0 -2 -2 -16 -3 -31 -2 -28 -1 -28 54 -25 51 3 55 5 55
28 0 23 -4 25 -52 28 -29 2 -53 2 -54 0z"/>
<path d="M2140 1155 c0 -9 9 -15 25 -15 16 0 25 6 25 15 0 9 -9 15 -25 15 -16
0 -25 -6 -25 -15z"/>
<path d="M2250 1155 c0 -9 9 -15 25 -15 16 0 25 6 25 15 0 9 -9 15 -25 15 -16
0 -25 -6 -25 -15z"/>
<path d="M2370 1140 c0 -27 3 -30 30 -30 27 0 30 3 30 30 0 27 -3 30 -30 30
-27 0 -30 -3 -30 -30z"/>
<path d="M2056 2694 c-9 -22 -8 -24 9 -24 8 0 15 9 15 20 0 24 -15 27 -24 4z"/>
<path d="M975 2659 c4 -6 14 -8 22 -5 8 3 24 1 36 -5 21 -10 21 -10 3 5 -22
18 -71 22 -61 5z"/>
<path d="M1070 2633 c8 -3 34 -13 57 -24 59 -27 67 -23 13 6 -25 13 -54 24
-65 24 -14 0 -15 -2 -5 -6z"/>
</g>
</svg>
